<?xml version="1.0" encoding="utf-8"?>
<!DOCTYPE svg PUBLIC "-//W3C//DTD SVG 20010904//EN" "http://www.w3.org/TR/2001/REC-SVG-20010904/DTD/svg10.dtd">
<svg version="1.0" xmlns="http://www.w3.org/2000/svg" width="780px" height="710px" viewBox="0 0 780 710" preserveAspectRatio="xMidYMid meet">
 <g fill="#bd1f65">
  <path d="M317 704.9 c-53.8 -3.1 -106.5 -21.2 -156 -53.4 -46.5 -30.2 -91 -79.3 -117.1 -129 -29.3 -55.8 -40.1 -103.2 -38.6 -170.5 0.3 -14.6 1.1 -31 1.7 -36.5 7.5 -69.4 34.4 -131.6 80.2 -186 9 -10.7 33.8 -33.9 49.5 -46.4 47.3 -37.5 103.6 -62 166.3 -72.1 22.1 -3.6 67.6 -5.2 84 -3 29.6 3.9 37 5.1 41.9 6.5 2.5 0.7 8.2 2.1 12.6 3 9.5 2 37.5 11.1 46 14.9 31.5 14.1 47.1 22.4 66 35.4 26.1 17.8 59.7 48.4 77.3 70.5 39.8 49.9 64.8 110.1 73.8 177.9 1 7.8 1.8 22.8 2.1 41.3 0.4 27.5 0.2 31.9 -2.6 54.3 -1 7.3 -4.8 27.2 -5.9 30.1 -0.3 0.9 0.8 -0.1 2.5 -2.1 4.3 -5.4 8.4 -8.5 15 -11.6 5.3 -2.4 6.9 -2.7 17.3 -2.7 10.4 0 12.1 0.3 17.2 2.7 11.3 5.3 18.4 13.5 21.3 24.4 7.4 28.5 -10.2 52.4 -38.5 52.4 -17.3 0 -29.9 -7.8 -36.7 -22.7 -3.2 -7 -4.2 -21 -2.1 -28.8 l1.4 -5 -63.1 0.3 c-63.7 0.4 -124.1 -1 -132.7 -2.9 -7.5 -1.7 -12.9 -8.4 -16.9 -20.8 -1.7 -5.3 -3.3 -12.4 -3.6 -15.8 l-0.6 -6.2 100.6 -0.3 c73.6 -0.2 100.9 -0.6 101.7 -1.4 0.7 -0.7 2.1 -7.4 3.2 -15 3.3 -23.4 1.7 -48.8 -4.2 -66.9 -2.5 -7.5 -10.7 -16.2 -19 -19.9 -12.4 -5.6 -17.2 -5.9 -89.5 -5.3 -64.9 0.6 -75.6 1.1 -90 4.3 -16.8 3.7 -33.3 15.2 -38.6 26.9 -5.9 13 -7.9 31.4 -7.9 72.5 0 25 0.2 28.5 2.4 39.2 2.9 14.3 6 21.3 13 29.3 7.8 8.8 17.6 13.6 35.4 17.3 6.6 1.3 21.2 1.6 101.2 2.1 l93.5 0.6 0.3 3.8 c0.3 2.9 -1 6.5 -6.2 17 -12.7 25.8 -28.1 49.9 -46 72.2 -10.3 12.7 -38.3 41.4 -50.3 51.5 -17.9 14.9 -44.9 32.1 -67.5 42.9 -37.5 18 -66 26.5 -102.3 30.6 -14.2 1.6 -66.9 1.9 -91.5 0.4z m49 -221 c10.1 -2.7 14.3 -5.4 22.7 -14.2 6 -6.3 7.5 -8.6 10.4 -16.3 l3.4 -8.9 0 -23.5 c0 -28 -0.4 -29.5 -10.7 -46.7 -8.4 -13.9 -8.8 -17.3 -3.4 -26.2 1.9 -3.1 5.4 -9.7 7.8 -14.6 l4.3 -9 0.3 -17.2 c0.6 -27.4 -2.7 -40.2 -13.2 -51.2 -6.9 -7.1 -12 -10.1 -23.3 -13.3 l-7.8 -2.3 -118.2 0 c-65 0 -118.5 0.4 -118.9 0.8 -0.9 0.9 -2 240.8 -1.1 243.2 0.6 1.3 13.3 1.5 120.4 1.5 118 0 120 0 127.3 -2.1z"/>
  <path d="M203.3 441.3 l-34.3 -0.3 0 -30.8 0 -30.9 78.5 -0.6 c46.3 -0.4 80.4 -0.3 83.2 0.2 5.6 1.1 15.1 4.5 17.7 6.4 4.5 3.3 6.2 33.9 2.5 45 -1.1 3.4 -2.6 6.8 -3.3 7.5 -0.7 0.7 -7.1 1.8 -15.1 2.7 -14 1.5 -28.4 1.6 -129.2 0.8z"/>
  <path d="M210.1 343.3 l-41.4 -0.3 0.5 -28 c0.2 -15.4 0.8 -28.3 1.2 -28.7 0.4 -0.5 35.9 -1.1 78.9 -1.4 65 -0.5 79.6 -0.4 86.7 0.8 4.7 0.8 9.5 2 10.7 2.8 3.1 2.1 5.3 10.7 6 23.9 0.5 10 0.3 12 -1.7 18.2 -1.2 3.8 -2.9 7.6 -3.6 8.4 -3.9 4.1 -35 5.1 -137.3 4.3z"/>
  <path d="M480 371.3 c0 -5 3.5 -22.3 5.5 -27 2.1 -5.1 6.1 -9.2 11.2 -11.4 8.2 -3.8 35.4 -5.2 85 -4.5 46.6 0.6 48.5 0.8 52.6 5.3 2.5 2.8 4.5 13.5 5.3 28.4 l0.7 12.9 -80.2 0 -80.1 0 0 -3.7z"/>
 </g>
 <g fill="#ffffff">
  <path d="M0 356 l0 -356 389.5 0 389.5 0 0 356 0 356 -389.5 0 -389.5 0 0 -356z m405.5 345.5 c36.3 -4.1 64.8 -12.6 102.3 -30.6 16.4 -7.8 26.3 -13.6 45 -26.3 18 -12.2 28.7 -21.3 48.2 -41.2 24.3 -24.9 40.9 -46.3 56.6 -73 9.4 -16.2 20.7 -39.1 19.9 -40.4 -0.4 -0.7 -30.8 -1 -89 -1 -74.3 0 -90.2 -0.2 -99.5 -1.5 -21.1 -3 -32.8 -8.1 -41.6 -18 -7 -8 -10.1 -15 -13 -29.3 -2.2 -10.8 -2.4 -14 -2.4 -42.2 0 -44.2 1.9 -62.3 7.9 -75.5 5.3 -11.7 21.8 -23.2 38.6 -26.9 14.6 -3.3 24.9 -3.8 93 -4.3 75.6 -0.6 80.1 -0.3 92.5 5.3 8.3 3.7 16.5 12.4 19 19.9 4.1 12.4 5.1 19.8 5.6 39.5 0.5 16.1 0.2 21.9 -1.4 33.4 -1.1 7.6 -2.5 14.3 -3.2 15 -0.8 0.8 -28.1 1.2 -101.6 1.4 l-100.6 0.3 0.6 3.3 c0.4 1.8 2 7.6 3.6 12.8 2.4 7.8 3.9 10.5 7.5 14.6 3.9 4.3 5.4 5.2 9.8 6.1 9.3 1.9 58.7 3.1 124.4 3.1 l64.3 0 1.4 -2.3 c0.8 -1.2 2.6 -7.8 4 -14.5 2.5 -11.8 3.2 -16.3 5.7 -36.7 1.5 -12.3 0.6 -57.6 -1.5 -73.3 -4.9 -36.9 -13 -66.5 -27.3 -100.2 -11.4 -26.6 -28.2 -54.8 -46.5 -77.7 -10.8 -13.5 -36.8 -39.2 -52.3 -51.7 -29.5 -23.8 -48.9 -35.4 -91 -54.2 -8.5 -3.8 -36.5 -12.9 -46 -14.9 -4.4 -0.9 -10.1 -2.3 -12.6 -3 -4.9 -1.4 -12.3 -2.6 -41.9 -6.5 -15.6 -2.1 -56.2 -0.6 -78 3 -62.7 10.1 -119 34.6 -166.3 72.1 -15.7 12.5 -40.5 35.7 -49.5 46.4 -45.8 54.4 -72.8 116.9 -80.2 186 -0.6 5.5 -1.3 20.6 -1.7 33.5 -1.6 63.5 9.7 112.5 38.6 167.5 20.5 39 55.2 81.2 89.6 108.8 55.1 44.3 118.8 69.8 183.5 73.6 24.3 1.4 71.3 1.2 85.5 -0.4z m337 -201 c19.2 -5 31.1 -25.1 26.1 -44.3 -2.9 -11.5 -10 -19.7 -21.4 -25 -4.7 -2.2 -7.1 -2.7 -14.2 -2.7 -7.4 0 -9.3 0.4 -15 3.1 -8.3 3.9 -14.5 10.1 -18.4 18.4 -2.7 5.7 -3.1 7.6 -3.1 15 0 7.1 0.5 9.5 2.7 14.2 3.6 7.7 7.3 12.2 13.5 16.3 9 6.1 19 7.7 29.8 5z m-106 -138.2 c-0.9 -12.7 -3 -23.1 -5.2 -25.6 -4 -4.4 -6.2 -4.7 -49.5 -5.3 -46.6 -0.7 -74 0.8 -82.1 4.5 -5.1 2.2 -9.1 6.3 -11.2 11.4 -1.3 3.1 -5.5 21.3 -5.5 24 0 0.4 34.7 0.7 77.1 0.7 l77.1 0 -0.7 -9.7z"/>
  <path d="M115.3 487.5 c-0.9 -2.4 0.2 -248.3 1.1 -249.2 0.4 -0.4 55.3 -0.8 121.9 -0.8 l121.2 0 7.8 2.3 c11.3 3.2 16.4 6.2 23.3 13.3 10.8 11.3 13.7 23.3 13.2 54.2 l-0.3 20.2 -4.3 9 c-2.4 4.9 -5.9 11.5 -7.8 14.6 -1.8 3.1 -3.4 6.4 -3.4 7.3 0 0.9 3.1 6.7 6.8 12.9 10.5 17.5 10.7 18.3 10.7 49.7 l0 26.5 -3.4 8.9 c-2.9 7.7 -4.4 10 -10.4 16.3 -8.4 8.8 -12.6 11.5 -22.7 14.2 -7.3 2.1 -9.3 2.1 -130.3 2.1 -109.6 0 -122.8 -0.2 -123.4 -1.5z m214.1 -50 c7.6 -0.8 14.4 -1.9 15.1 -2.5 0.7 -0.6 2.3 -4.2 3.5 -8.1 2 -6.1 2.2 -8.4 1.7 -17.2 -0.3 -5.6 -1.1 -12.6 -1.7 -15.5 -1.3 -5.8 -2.8 -7 -14 -10.8 -6.1 -2.1 -6.3 -2.1 -108.2 -1.6 l-53.8 0.2 0 28 0 28 34.3 0.3 c98.5 0.7 109.2 0.7 123.1 -0.8z m4.6 -98.5 c5 -0.7 9.2 -1.9 10.1 -2.9 0.9 -0.9 2.7 -4.7 3.9 -8.5 1.9 -5.9 2.2 -8.1 1.6 -15.5 -0.4 -4.7 -1.4 -11 -2.2 -13.9 -3.2 -11 -3.8 -11 -98.1 -10.3 -41.3 0.3 -75.5 0.9 -75.9 1.3 -0.4 0.4 -0.9 12 -1.2 25.8 l-0.5 25 41.4 0.3 c72.3 0.5 111.7 0.1 120.9 -1.3z"/>
 </g>
</svg>
