<?xml version="1.0" encoding="utf-8"?>
<!DOCTYPE svg PUBLIC "-//W3C//DTD SVG 20010904//EN" "http://www.w3.org/TR/2001/REC-SVG-20010904/DTD/svg10.dtd">
<svg version="1.0" xmlns="http://www.w3.org/2000/svg" width="780px" height="710px" viewBox="0 0 780 710" preserveAspectRatio="xMidYMid meet">
 <g fill="transparent">
  <path d="M0 355 l0 -355 390 0 390 0 0 355 0 355 -390 0 -390 0 0 -355z m393 346.5 c88.3 -11.1 165.7 -52.2 223.2 -118.4 46.4 -53.4 74.1 -116.2 83.4 -188.6 2.5 -19.1 2.5 -55.6 0 -75 -10.3 -81.6 -45.5 -153.1 -102.8 -209.1 -56.3 -55.1 -124.4 -87.8 -204.3 -98 -20.8 -2.7 -56.6 -2.5 -78.5 0.4 -69.8 9.4 -133 37.7 -185.1 83 -65.2 56.7 -106.4 133.4 -118.1 220.2 -3.1 23.4 -3.1 58.6 0 82 10.7 79.6 46 150.5 102.4 205.6 60.1 58.9 135 92.6 221.3 99.8 10 0.8 46.3 -0.3 58.5 -1.9z m347.8 -204.5 c12.9 -3.3 25.4 -19 25.4 -32 0 -16.2 -16.8 -33 -33.1 -33 -16.7 0 -33.1 16.3 -33.1 33 0 14.6 13.3 30.1 28.3 32.9 4.2 0.8 6.2 0.7 12.5 -0.9z"/>
  <path d="M121 488.5 l0 -3.5 40.5 0 40.5 0 0 3.5 0 3.5 -40.5 0 -40.5 0 0 -3.5z"/>
  <path d="M302 488.5 l0 -3.5 28.5 0 28.5 0 0 3.5 0 3.5 -28.5 0 -28.5 0 0 -3.5z"/>
  <path d="M503 488.5 l0 -3.5 30.5 0 30.5 0 0 3.5 0 3.5 -30.5 0 -30.5 0 0 -3.5z"/>
  <path d="M112.6 489.4 c-0.3 -0.9 -0.6 -8.3 -0.6 -16.5 l0 -14.9 3.5 0 3.5 0 0 11.3 c0 6.1 0.3 13.6 0.6 16.5 l0.7 5.2 -3.6 0 c-2.3 0 -3.7 -0.6 -4.1 -1.6z"/>
  <path d="M360 487.6 c0 -3.2 0.2 -3.4 4.3 -4 7.8 -1.2 14.6 -5.2 22.7 -13.4 10.2 -10.4 14.2 -19.3 14.8 -32.9 l0.4 -9.3 3.4 0 3.4 0 0 10.5 c0 8.6 -0.4 11.6 -2.4 16.8 -3.8 10.2 -6.2 14.3 -12.5 21 -8.6 9.1 -19.9 14.7 -29.8 14.7 -4.2 0 -4.3 -0.1 -4.3 -3.4z"/>
  <path d="M477.1 488.9 c-17.9 -3.8 -27.8 -9.5 -35.7 -20.5 -9.4 -13.2 -12.4 -29.2 -12.4 -66.1 l0 -25.3 3.4 0 3.4 0 0.4 28.3 c0.4 25.1 0.7 29.1 2.6 36.2 4.8 17.6 12.9 28.3 26.4 34.9 7.2 3.6 22.2 7.5 28.6 7.6 3 0 3.2 0.2 3.2 3.5 l0 3.5 -5.2 -0.1 c-2.9 0 -9.5 -0.9 -14.7 -2z"/>
  <path d="M537 445.5 l0 -3.5 15.5 0 15.5 0 0 3.5 0 3.5 -15.5 0 -15.5 0 0 -3.5z"/>
  <path d="M512 444.5 l0 -3.5 7.5 0 7.5 0 0 3.5 0 3.5 -7.5 0 -7.5 0 0 -3.5z"/>
  <path d="M497.5 445.5 c-4.5 -1.6 -9.4 -6.7 -12.3 -12.9 -2.7 -5.6 -7.2 -22.3 -7.2 -26.3 0 -3.1 0.2 -3.3 3.3 -3.3 l3.2 0 2.4 8.9 c4.9 18.9 12 28.1 21.6 28.1 2.2 0 2.5 0.4 2.5 3.5 l0 3.5 -4.7 0 c-2.7 -0.1 -6.6 -0.7 -8.8 -1.5z"/>
  <path d="M172 438.5 l0 -3.5 34.5 0 34.5 0 0 3.5 0 3.5 -34.5 0 -34.5 0 0 -3.5z"/>
  <path d="M310 438.5 l0 -3.5 8.5 0 8.5 0 0 3.5 0 3.5 -8.5 0 -8.5 0 0 -3.5z"/>
  <path d="M328 437.7 l0 -3.5 6 -0.7 c3.3 -0.4 6.7 -1.4 7.5 -2.2 0.9 -0.8 2.3 -4.1 3.3 -7.4 1.6 -5.6 1.8 -5.9 5 -5.9 3.1 0 3.2 0.1 3.1 4.3 0 2.3 -1 6.9 -2.2 10.1 -2.5 6.8 -2.9 7 -15.2 8.1 l-7.5 0.7 0 -3.5z"/>
  <path d="M112 406.5 l0 -26.5 3.5 0 3.5 0 0 26.5 0 26.5 -3.5 0 -3.5 0 0 -26.5z"/>
  <path d="M345.7 403.3 c-1.2 -12.2 -1.2 -12.3 2.7 -12.3 3.3 0 3.3 0.1 4 5.3 0.3 2.8 0.6 7.1 0.6 9.5 0 4.1 -0.1 4.2 -3.4 4.2 l-3.3 0 -0.6 -6.7z"/>
  <path d="M523 405.5 l0 -3.5 57 0 57 0 0 3.5 0 3.5 -57 0 -57 0 0 -3.5z"/>
  <path d="M673 404.5 c0 -3.4 0.1 -3.5 3.9 -3.5 3.9 0 3.9 0 5 -5 0.6 -2.8 1.4 -7.5 1.7 -10.5 0.7 -5.4 0.7 -5.5 4 -5.5 3.3 0 3.4 0.2 3.4 3.8 0 6.1 -3 21.3 -4.5 22.8 -0.8 0.9 -3.6 1.4 -7.4 1.4 l-6.1 0 0 -3.5z"/>
  <path d="M400.5 394.5 c-0.3 -3.6 -1 -6.5 -1.4 -6.5 -0.9 0 -4.1 -6.6 -4.1 -8.4 0 -0.8 -0.7 -1.6 -1.5 -2 -0.8 -0.3 -1.5 -1.5 -1.5 -2.6 0 -1.1 -0.4 -2 -1 -2 -1.5 0 -4 -5.6 -4 -9 0 -2.7 0.3 -3 3.3 -3 2.5 0 3.6 0.6 5 2.9 0.9 1.6 1.7 3.6 1.7 4.4 0 0.8 0.7 1.7 1.5 2.1 0.8 0.3 1.5 1.2 1.5 2.1 0 0.9 0.9 2.5 2 3.7 1.1 1.2 2.3 3.8 2.6 5.7 0.4 2 1.1 3.8 1.5 4.1 0.5 0.3 1.1 3.8 1.5 7.8 l0.7 7.2 -3.5 0 -3.6 0 -0.7 -6.5z"/>
  <path d="M331 386.5 c-1.9 -0.7 -5 -1.4 -6.7 -1.4 -3.1 -0.1 -3.3 -0.3 -3.3 -3.7 l0 -3.7 6.8 0.7 c3.7 0.4 8.4 1.2 10.5 1.8 3.3 1 3.7 1.5 3.7 4.5 0 3.2 -0.1 3.3 -3.7 3.2 -2.1 0 -5.4 -0.7 -7.3 -1.4z"/>
  <path d="M178 381.5 l0 -3.5 52.5 0 52.5 0 0 3.5 0 3.5 -52.5 0 -52.5 0 0 -3.5z"/>
  <path d="M634 370.5 c0 -4.5 0 -4.5 3.5 -4.5 3.5 0 3.5 0 3.5 4.5 0 4.5 0 4.5 -3.5 4.5 -3.5 0 -3.5 0 -3.5 -4.5z"/>
  <path d="M480 367 c0 -1.6 0.7 -6.3 1.7 -10.5 l1.6 -7.5 3.4 0 c2.9 0 3.3 0.3 3.3 2.7 0 1.5 -0.8 6.3 -1.7 10.5 l-1.6 7.8 -3.4 0 c-3 0 -3.3 -0.3 -3.3 -3z"/>
  <path d="M633 362.3 c0 -1.6 -0.3 -5.8 -0.7 -9.5 l-0.6 -6.8 3.5 0 3.5 0 0.7 6.1 c0.3 3.4 0.6 7.7 0.6 9.5 0 3.2 -0.2 3.4 -3.5 3.4 -3.1 0 -3.5 -0.3 -3.5 -2.7z"/>
  <path d="M385 356.5 c0 -3.8 2.4 -9.5 4 -9.5 0.6 0 1 -0.7 1 -1.5 0 -0.8 2.1 -5.8 4.7 -11 4.6 -9.1 4.9 -9.5 8 -9.5 3.1 0 3.3 0.2 3.3 3.4 0 3.6 -8.4 21.6 -10.1 21.6 -0.5 0 -0.9 0.7 -0.9 1.5 0 0.8 -0.8 3 -1.7 5 -1.4 3 -2.2 3.5 -5 3.5 -3.1 0 -3.3 -0.2 -3.3 -3.5z"/>
  <path d="M430 356 c0 -3.9 0.1 -4 3.5 -4 3.4 0 3.5 0.1 3.5 4 0 3.9 -0.1 4 -3.5 4 -3.4 0 -3.5 -0.1 -3.5 -4z"/>
  <path d="M431 346.6 c0 -5.1 3.8 -23 5 -23.4 0.5 -0.2 1 -1.2 1 -2.3 0 -3.8 3 -6.9 6.6 -6.9 3.1 0 3.4 0.3 3.4 3 0 2.6 -2.1 7.4 -4 9 -0.9 0.8 -5 18.2 -5 21.3 0 2.4 -0.4 2.7 -3.5 2.7 -3.3 0 -3.5 -0.2 -3.5 -3.4z"/>
  <path d="M486 344.6 c0 -3.9 2.6 -7.6 7.5 -10.6 3.7 -2.3 16 -4.9 23.3 -5 4.1 0 4.2 0.1 4.2 3.4 l0 3.3 -5.7 0.5 c-9.3 0.9 -14.3 2.9 -19.2 7.5 -3.1 3 -5.3 4.3 -7.3 4.3 -2.5 0 -2.8 -0.3 -2.8 -3.4z"/>
  <path d="M630 343.6 c0 -2.6 -4.1 -6.5 -7.5 -7.2 -3.2 -0.6 -3.5 -0.9 -3.5 -4.2 l0 -3.5 5.6 0.6 c8.9 0.9 12.4 4.4 12.4 12.3 0 3.2 -0.2 3.4 -3.5 3.4 -2.3 0 -3.5 -0.5 -3.5 -1.4z"/>
  <path d="M684 341 c0 -3.9 0.1 -4 3.5 -4 3.4 0 3.5 0.1 3.5 4 0 3.9 -0.1 4 -3.5 4 -3.4 0 -3.5 -0.1 -3.5 -4z"/>
  <path d="M173 340.5 l0 -3.5 37.5 0 37.5 0 0 3.5 0 3.5 -37.5 0 -37.5 0 0 -3.5z"/>
  <path d="M309 340.5 l0 -3.5 5 0 5 0 0 3.5 0 3.5 -5 0 -5 0 0 -3.5z"/>
  <path d="M329 339.5 c0 -3.4 0.1 -3.5 4 -3.5 3.9 0 4 0.1 4 3.5 0 3.4 -0.1 3.5 -4 3.5 -3.9 0 -4 -0.1 -4 -3.5z"/>
  <path d="M338 337.6 c0 -3 0.4 -3.5 3 -4.1 2.4 -0.5 3 -1.2 3 -3.2 0 -1.4 0.5 -4.3 1.2 -6.4 1 -3.5 1.4 -3.9 4.5 -3.9 3 0 3.3 0.2 3.3 3.1 0 4.6 -2.1 10.9 -3.7 10.9 -0.8 0 -1.3 1.1 -1.3 2.9 0 3.2 -1.4 4.1 -6.6 4.1 -3.2 0 -3.4 -0.2 -3.4 -3.4z"/>
  <path d="M683 334.3 c0 -0.9 -0.9 -5.1 -2.1 -9.3 -1.4 -5.4 -3.1 -9 -6 -12.6 -2.1 -2.7 -4.2 -5.7 -4.5 -6.6 -0.4 -1 -1.2 -1.8 -2 -1.8 -1.2 0 -8.4 -3.8 -9.4 -5 -0.7 -0.8 -10.6 -3 -13.6 -3 -2.1 0 -2.4 -0.5 -2.4 -3.5 0 -3.4 0.1 -3.5 3.8 -3.5 5.2 0 15.2 2.1 15.2 3.1 0 0.5 1 0.9 2.1 0.9 2.9 0 8.9 3.8 8.9 5.6 0 0.8 0.9 1.4 1.9 1.4 1.9 0 7.6 6.2 10 10.7 1.6 3.1 5.1 18.2 5.1 22.1 0 3 -0.2 3.2 -3.5 3.2 -2.6 0 -3.5 -0.4 -3.5 -1.7z"/>
  <path d="M524 331.5 l0 -3.5 8 0 8 0 0 3.5 0 3.5 -8 0 -8 0 0 -3.5z"/>
  <path d="M605 331.5 c0 -3.5 0 -3.5 4.5 -3.5 4.5 0 4.5 0 4.5 3.5 0 3.5 0 3.5 -4.5 3.5 -4.5 0 -4.5 0 -4.5 -3.5z"/>
  <path d="M345.5 306.3 c-0.6 -6.9 -1.1 -8.1 -3.6 -10.4 -2 -1.8 -2.9 -3.5 -2.9 -5.7 0 -3 0.2 -3.2 3.5 -3.2 4.3 0 7.5 2.9 7.5 6.9 0 1.6 0.4 3.1 1 3.3 0.5 0.2 1.2 4 1.6 8.6 l0.7 8.2 -3.5 0 -3.6 0 -0.7 -7.7z"/>
  <path d="M449 308.5 c0 -2.5 0.5 -3.8 1.8 -4.2 0.9 -0.4 2.1 -1.2 2.5 -2 0.4 -0.7 1.5 -1.3 2.3 -1.3 0.9 0 2.2 -0.7 3 -1.5 0.9 -0.8 2.7 -1.8 4.2 -2.2 1.5 -0.3 2.9 -1 3.2 -1.4 1.2 -1.8 21.7 -5.8 29.8 -5.9 3 0 3.2 0.2 3.2 3.5 0 3.4 -0.1 3.5 -3.7 3.5 -6.6 0.1 -25 4.7 -27.2 6.8 -0.7 0.7 -2.6 1.6 -4.2 1.9 -1.5 0.3 -3 1.1 -3.3 1.9 -0.3 0.8 -1.2 1.4 -2 1.4 -0.7 0 -1.6 0.7 -2 1.5 -0.3 0.9 -1.9 1.5 -4.1 1.5 -3.3 0 -3.5 -0.2 -3.5 -3.5z"/>
  <path d="M509 292.5 l0 -3.5 5 0 5 0 0 3.5 0 3.5 -5 0 -5 0 0 -3.5z"/>
  <path d="M609 291.5 l0 -3.5 6 0 6 0 0 3.5 0 3.5 -6 0 -6 0 0 -3.5z"/>
  <path d="M174 288.5 l0 -3.5 11.5 0 11.5 0 0 3.5 0 3.5 -11.5 0 -11.5 0 0 -3.5z"/>
  <path d="M330 288.5 c0 -3.4 0.1 -3.5 4 -3.5 3.9 0 4 0.1 4 3.5 0 3.4 -0.1 3.5 -4 3.5 -3.9 0 -4 -0.1 -4 -3.5z"/>
  <path d="M240 287.5 l0 -3.5 42.5 0 42.5 0 0 3.5 0 3.5 -42.5 0 -42.5 0 0 -3.5z"/>
  <path d="M399 283.8 c0 -2.9 -2.3 -14.2 -3 -14.8 -1.9 -1.6 -5 -8.6 -5 -11.1 0 -2.6 0.3 -2.9 3.4 -2.9 2.8 0 3.8 0.6 5.5 3.6 1.2 1.9 2.1 4.6 2.1 5.9 0 1.3 0.4 2.5 0.9 2.7 1 0.3 3.1 11.2 3.1 16.1 0 2.4 -0.3 2.7 -3.5 2.7 -2.9 0 -3.5 -0.4 -3.5 -2.2z"/>
  <path d="M377 248.7 c-1.9 -1.2 -3.6 -2.5 -3.8 -2.9 -0.2 -0.4 -1.5 -0.8 -2.8 -0.8 -1.3 0 -2.4 -0.4 -2.4 -1 0 -0.5 -1.2 -1 -2.7 -1 -5.9 0 -7.3 -1 -7.3 -4.7 l0 -3.6 5.2 0.5 c2.9 0.3 5.4 1.1 5.6 1.7 0.2 0.6 1.9 1.1 3.8 1.1 1.9 0 3.4 0.5 3.4 1 0 0.6 1 1 2.1 1 1.2 0 3.7 0.9 5.5 2.1 2.8 1.7 3.4 2.7 3.4 5.5 0 3.2 -0.2 3.4 -3.2 3.3 -1.8 0 -4.9 -1 -6.8 -2.2z"/>
 </g>
 <g fill="#fff">
  <path d="M155 491.1 l-41.5 -0.6 -0.5 -14 c-0.3 -7.7 -0.3 -65.2 -0.1 -127.7 l0.3 -113.8 124.4 0 c121.8 0 128.2 0.1 135.9 3 15.2 5.7 26.4 17.3 30.1 31.4 2 7.4 3.6 31 3.2 46.6 l-0.4 13.5 -5.8 11.5 c-3.2 6.3 -6.5 12.6 -7.4 14 -1.4 2.4 -1.3 3 0.7 7 1.1 2.5 3 5.9 4 7.5 4.3 6.7 8.2 16.1 9.2 22.4 0.5 3.8 0.9 18.4 0.7 33.7 l-0.3 26.9 -3.4 8 c-2.8 6.4 -4.9 9.4 -11 15.6 -4.2 4.2 -9.5 8.6 -11.8 9.8 -9.9 5 -11 5 -100.8 5.4 -46.2 0.2 -102.7 0.1 -125.5 -0.2z m25.8 -2.8 c-10.3 -0.2 -27.4 -0.2 -38 0 -10.6 0.1 -2.2 0.2 18.7 0.2 20.9 0 29.6 -0.1 19.3 -0.2z m162.4 0 c-7.3 -0.2 -19 -0.2 -26 0 -7 0.1 -1 0.3 13.3 0.3 14.3 0 20 -0.2 12.7 -0.3z m-227.5 -21 c-0.2 -3.7 -0.3 -0.9 -0.3 6.2 0 7.2 0.1 10.2 0.3 6.8 0.2 -3.4 0.2 -9.3 0 -13z m275.3 6.1 c4 -4.3 3.8 -4.2 -2 1.1 -8.7 7.9 -9 8.2 -5.5 5.7 1.7 -1.1 5 -4.2 7.5 -6.8z m14.7 -38.6 c-0.2 -2.4 -0.4 -0.5 -0.4 4.2 0 4.7 0.2 6.6 0.4 4.3 0.2 -2.4 0.2 -6.2 0 -8.5z m-182.9 3.5 c-8.6 -0.2 -23 -0.2 -32 0 -9 0.1 -1.9 0.3 15.7 0.3 17.6 0 24.9 -0.2 16.3 -0.3z m99 0 c-1.5 -0.2 -4.2 -0.2 -6 0 -1.8 0.2 -0.6 0.4 2.7 0.4 3.3 0 4.8 -0.2 3.3 -0.4z m7.5 -3.8 c6.5 -0.8 12.2 -1.7 12.6 -2 0.5 -0.3 1.9 -3.5 3.2 -7.2 1.9 -5.8 2.1 -8 1.6 -16.9 -0.7 -11.8 -2.1 -15.4 -7.5 -18.7 -8.4 -5.3 -6 -5.1 -78.2 -5.5 -37.1 -0.2 -71.7 0 -76.7 0.3 l-9.3 0.7 0 24.8 c0 22.8 0.1 24.9 1.8 25.3 0.9 0.3 33 0.5 71.2 0.6 55.4 0.1 72 -0.2 81.3 -1.4z m16.7 -0.6 c0.7 -1.1 0.9 -2.3 0.6 -2.7 -0.3 -0.3 -0.6 0 -0.6 0.6 0 0.6 -0.7 1.8 -1.6 2.6 -0.8 0.9 -1.1 1.6 -0.5 1.6 0.6 0 1.5 -0.9 2.1 -2.1z m-230.3 -39.1 c-0.1 -6.8 -0.3 -1.5 -0.3 11.7 0 13.2 0.2 18.7 0.3 12.3 0.2 -6.4 0.2 -17.2 0 -24z m234 7.5 c-0.3 -1 -0.5 -0.2 -0.5 1.7 0 1.9 0.2 2.7 0.5 1.8 0.2 -1 0.2 -2.6 0 -3.5z m-93.9 -21 c-13.6 -0.2 -36.1 -0.2 -50 0 -13.9 0.1 -2.8 0.2 24.7 0.2 27.5 0 38.9 -0.1 25.3 -0.2z m134.6 -28 c0.9 -1.8 1.4 -3.3 1.2 -3.3 -0.6 0 -3.6 5.5 -3.6 6.6 0 1.1 0.5 0.3 2.4 -3.3z m8.2 -15.4 c1.9 -3.9 3.4 -7.3 3.2 -7.5 -0.2 -0.2 -2.1 3 -4.1 7.1 -2 4.1 -3.5 7.5 -3.2 7.5 0.3 0 2.1 -3.2 4.1 -7.1z m-170.9 2.4 c-9.8 -0.2 -25.6 -0.2 -35 0 -9.5 0.1 -1.4 0.3 17.8 0.2 19.3 0 27 -0.1 17.2 -0.2z m107.6 -4.6 c3.3 -0.9 6 -1.7 6.1 -1.9 4.2 -7.4 5.1 -10.7 5 -19.5 0 -5.1 -0.5 -10.3 -1.1 -11.5 -0.6 -1.3 -1.4 -3.6 -1.9 -5.3 -2.1 -7 -13.4 -7.8 -94.9 -7 -35.7 0.3 -66.7 0.8 -68.7 1.1 l-3.8 0.6 0 22.3 c0 20.4 0.2 22.4 1.8 22.9 0.9 0.2 35.5 0.3 76.7 0.1 63.8 -0.2 75.9 -0.5 80.8 -1.8z m-145 -47.4 c-2.3 -0.2 -6.4 -0.2 -9 0 -2.6 0.2 -0.7 0.3 4.2 0.3 5 0 7.1 -0.1 4.8 -0.3z m111.9 -1 c-11.2 -0.2 -29.2 -0.2 -40 0 -10.8 0.1 -1.7 0.2 20.3 0.2 22 0 30.9 -0.1 19.7 -0.2z"/>
  <path d="M521.5 490.9 c-32.8 -0.6 -38 -0.9 -45.9 -2.7 -26.7 -6.4 -38.7 -19.3 -44.1 -47.7 -1.9 -9.7 -2.2 -74.9 -0.5 -92.3 2.2 -22.2 7 -33.2 18.4 -42.4 8.7 -6.9 18 -11 31.6 -13.8 11.3 -2.3 44 -3.1 108 -2.7 70.9 0.4 69.7 0.3 79.5 6 10.7 6.2 15.6 13 19.2 26.5 2.4 8.9 2.6 11.8 3 35.7 0.4 22.7 0.2 27.4 -1.5 37.3 -1.1 6.3 -2.3 11.7 -2.7 12 -0.4 0.4 -45.4 1 -100.1 1.3 -54.8 0.4 -99.8 0.9 -100.1 1.3 -0.8 0.7 2.4 12 5 17.5 3 6.3 8.5 11.7 13.3 13 7.7 2.1 45.7 3.1 117.7 3.1 l71.9 0 -0.7 3.3 c-0.9 4.1 -11.8 37 -13.9 42 l-1.6 3.7 -59.8 -0.2 c-32.8 -0.1 -76.3 -0.5 -96.7 -0.9z m26.3 -2.6 c-7.5 -0.2 -20.1 -0.2 -28 0 -7.9 0.1 -1.7 0.3 13.7 0.3 15.4 0 21.8 -0.2 14.3 -0.3z m-87.8 -9.9 c-2.5 -1.4 -6.5 -4.2 -9 -6.2 -2.5 -2 -3.6 -2.6 -2.5 -1.3 2.3 2.7 13.3 10.1 14.9 10.1 0.6 0 -0.9 -1.2 -3.4 -2.6z m99.3 -33.1 c-3.4 -0.2 -9.3 -0.2 -13 0 -3.7 0.2 -0.9 0.3 6.2 0.3 7.2 0 10.2 -0.1 6.8 -0.3z m-37 -1 c-1.3 -0.2 -3.5 -0.2 -5 0 -1.6 0.2 -0.5 0.4 2.2 0.4 2.8 0 4 -0.2 2.8 -0.4z m-89.6 -38.5 c-0.1 -4 -0.3 -0.8 -0.3 7.2 0 8 0.2 11.2 0.3 7.3 0.2 -4 0.2 -10.6 0 -14.5z m174.5 -0.5 c-14.9 -0.2 -39.5 -0.2 -54.5 0 -14.9 0.1 -2.7 0.2 27.3 0.2 30 0 42.2 -0.1 27.2 -0.2z m74.6 -1 c-1 -0.2 -2.8 -0.2 -4 0 -1.3 0.2 -0.5 0.4 1.7 0.4 2.2 0.1 3.2 -0.1 2.3 -0.4z m-249.1 -20 c-0.2 -2.7 -0.3 -0.5 -0.3 4.7 0 5.2 0.1 7.4 0.3 4.8 0.2 -2.7 0.2 -6.9 0 -9.5z m200.9 -22.5 c-0.5 -6.7 -1.8 -13.5 -3.5 -19.7 -2 -7 -9.5 -8 -61.1 -8 -34.8 0 -51.2 0.8 -61.8 3 -7.2 1.5 -13.2 6.2 -15.3 11.9 -0.9 2.5 -1.9 5.2 -2.2 6 -1 2.6 -2.7 9.4 -2.7 11.2 0 2.4 0.5 2.4 78.4 2.6 l68.9 0.2 -0.7 -7.2z m-98.8 -30.5 c-1.6 -0.2 -4 -0.2 -5.5 0 -1.6 0.2 -0.3 0.4 2.7 0.4 3 0 4.3 -0.2 2.8 -0.4z m82 -40 c-1 -0.2 -2.6 -0.2 -3.5 0 -1 0.3 -0.2 0.5 1.7 0.5 1.9 0 2.7 -0.2 1.8 -0.5z"/>
 </g>
 <g fill="#bd1f65">
  <path d="M331.5 706.4 c-86.2 -7.1 -161.2 -40.9 -221.3 -99.8 -56.4 -55.1 -91.6 -125.9 -102.4 -205.6 -3.2 -23.7 -3.2 -64.3 0 -88 11.8 -86.9 52.9 -163.5 118.1 -220.2 52.1 -45.3 115.2 -73.6 185.1 -83 22.1 -3 63.3 -3.2 84.5 -0.5 63.3 8.2 118.2 30 167.2 66.3 70.7 52.4 118.8 128.5 135.7 214.4 4.7 24 6 38.6 6 67 0.1 33 -1.6 47.3 -10.1 86.3 l-0.5 2.7 -58.2 0 c-63.6 0 -122 -1.4 -130.6 -3 -6.7 -1.2 -9.5 -3.2 -13.8 -9.4 -2.9 -4.4 -7.2 -16.1 -8.8 -24.2 l-0.6 -3.1 100.2 -0.5 c82.5 -0.5 100.5 -0.8 101.6 -1.9 0.7 -0.8 2 -5.8 3 -11.2 1.3 -8 1.5 -14.6 1.2 -34.5 -0.7 -36.1 -3.6 -46.2 -16.1 -56.3 -2.9 -2.3 -7 -4.9 -9.2 -5.9 -9.1 -3.9 -13 -4.1 -79.5 -4 -89.4 0.1 -102.1 1 -118.6 8.9 -9.8 4.7 -21.1 14.8 -24.4 21.9 -3.8 8.1 -5.9 21.2 -7 44.2 -2.7 59.1 -0.1 82.4 11.4 98.4 7.9 11.1 17.4 16.5 36.2 20.7 9.7 2.2 11.4 2.2 104.2 2.6 51.8 0.3 94.2 0.6 94.2 0.8 0 0.2 -2.2 5.2 -4.9 11.2 -24.3 53.8 -63.3 102.1 -111.4 137.7 -48.9 36.2 -104.1 58.2 -166.7 66.1 -12 1.6 -53.8 2.8 -64.5 1.9z m38.8 -219.7 c8.5 -2.9 14.7 -6.9 20.8 -13.4 6.3 -6.8 8.7 -10.8 12.5 -21 l2.4 -6.4 -0.9 -27.7 c-1 -31.5 -0.6 -29.7 -11 -48.1 l-6.4 -11.4 7.9 -15.3 7.9 -15.4 0.3 -10.7 c0.5 -14.3 -1.4 -40.9 -3.3 -47 -2.4 -7.4 -4.2 -10.3 -10.9 -17.1 -7.6 -7.8 -10.1 -9.4 -20 -12.6 l-7.9 -2.6 -122.7 0 -122.7 0 -0.7 123.3 c-0.4 67.7 -0.4 124 -0.1 124.9 0.4 1.1 2.1 1.8 4.8 2.1 2.3 0.2 58.4 0.3 124.7 0.3 109.9 -0.2 120.9 -0.3 125.3 -1.9z"/>
  <path d="M205.3 438.3 l-33.3 -0.3 0 -28 0 -28 54.3 -0.2 c104.9 -0.5 101.3 -0.6 109 2.1 11.9 4.1 12.9 5.8 14.3 25.2 0.6 8.3 0.4 10.6 -1.5 16.5 -1.1 3.8 -2.5 7.5 -3 8.3 -2.1 3.3 -14.5 4.2 -61.1 4.5 -25 0.1 -60.5 0.1 -78.7 -0.1z"/>
  <path d="M209.3 340.3 l-36.3 -0.3 0 -25.4 0 -25.4 21.3 -0.7 c11.6 -0.3 48.7 -0.5 82.2 -0.3 59.6 0.3 61.1 0.3 65 2.4 4.8 2.5 6.2 5.8 7.8 19.2 1.2 9.9 0.5 14.2 -3.2 22.7 -3.8 8.5 -7.5 8.7 -136.8 7.8z"/>
  <path d="M725.3 501 c-10.1 -2.1 -20.5 -10.5 -25.4 -20.7 -2.7 -5.6 -3 -7.4 -3 -15.3 0 -7.9 0.3 -9.7 3 -15.3 3.7 -7.7 11 -14.9 18.7 -18.3 4.5 -2 7.1 -2.4 14.5 -2.4 8.1 0 9.8 0.3 15.4 3 22 10.5 27.9 39.1 11.8 57 -9.3 10.3 -21.7 14.6 -35 12z"/>
  <path d="M488.3 371.3 c-3.3 -0.3 -5.3 -0.9 -5.3 -1.6 0 -3.1 5.8 -23.8 7.3 -26 2.7 -4.2 7.9 -7.5 14.2 -9.2 9.7 -2.5 41.1 -3.8 80 -3.2 38.8 0.5 43.2 1.1 46.7 5.7 2.2 3.1 4.4 13.5 5.4 25.8 l0.7 9.2 -71.9 -0.2 c-39.6 -0.1 -74.3 -0.3 -77.1 -0.5z"/>
 </g>
</svg>
